<mxfile host="Electron" modified="2024-05-23T16:06:03.945Z" agent="Mozilla/5.0 (X11; Linux x86_64) AppleWebKit/537.36 (KHTML, like Gecko) draw.io/24.4.0 Chrome/120.0.6099.291 Electron/28.3.1 Safari/537.36" etag="oyVs8RO5dECmYTk_OuEu" version="24.3.1" type="device">
  <diagram name="Page-1" id="S9Frs7H8kM4uvL1Z1ksd">
    <mxGraphModel dx="1195" dy="698" grid="1" gridSize="10" guides="1" tooltips="1" connect="1" arrows="1" fold="1" page="1" pageScale="1" pageWidth="827" pageHeight="1169" math="0" shadow="0">
      <root>
        <mxCell id="0" />
        <mxCell id="1" parent="0" />
        <mxCell id="SIbb_s702RinKGGiXuDa-1" value="&lt;font style=&quot;font-size: 14px;&quot;&gt;CameraAnimation&lt;/font&gt;" style="rounded=0;whiteSpace=wrap;html=1;fillColor=#d5e8d4;strokeColor=#82b366;" vertex="1" parent="1">
          <mxGeometry x="100" y="260" width="120" height="60" as="geometry" />
        </mxCell>
        <mxCell id="SIbb_s702RinKGGiXuDa-7" value="&lt;font style=&quot;font-size: 14px;&quot;&gt;controls&lt;/font&gt;" style="edgeStyle=orthogonalEdgeStyle;rounded=0;orthogonalLoop=1;jettySize=auto;html=1;exitX=0.5;exitY=0;exitDx=0;exitDy=0;entryX=0.5;entryY=0;entryDx=0;entryDy=0;" edge="1" parent="1" source="SIbb_s702RinKGGiXuDa-2" target="SIbb_s702RinKGGiXuDa-6">
          <mxGeometry relative="1" as="geometry" />
        </mxCell>
        <mxCell id="SIbb_s702RinKGGiXuDa-2" value="&lt;font style=&quot;font-size: 14px;&quot;&gt;CameraAnimationManager&lt;/font&gt;" style="rounded=0;whiteSpace=wrap;html=1;fillColor=#dae8fc;strokeColor=#6c8ebf;" vertex="1" parent="1">
          <mxGeometry x="100" y="200" width="360" height="60" as="geometry" />
        </mxCell>
        <mxCell id="SIbb_s702RinKGGiXuDa-3" value="&lt;font style=&quot;font-size: 14px;&quot;&gt;CameraAnimation&lt;/font&gt;" style="rounded=0;whiteSpace=wrap;html=1;fillColor=#d5e8d4;strokeColor=#82b366;" vertex="1" parent="1">
          <mxGeometry x="220" y="260" width="120" height="60" as="geometry" />
        </mxCell>
        <mxCell id="SIbb_s702RinKGGiXuDa-4" value="&lt;font style=&quot;font-size: 14px;&quot;&gt;CameraAnimation&lt;/font&gt;" style="rounded=0;whiteSpace=wrap;html=1;fillColor=#d5e8d4;strokeColor=#82b366;" vertex="1" parent="1">
          <mxGeometry x="340" y="260" width="120" height="60" as="geometry" />
        </mxCell>
        <mxCell id="SIbb_s702RinKGGiXuDa-6" value="&lt;font style=&quot;font-size: 14px;&quot;&gt;Camera&lt;/font&gt;" style="rounded=0;whiteSpace=wrap;html=1;" vertex="1" parent="1">
          <mxGeometry x="540" y="210" width="120" height="60" as="geometry" />
        </mxCell>
        <mxCell id="SIbb_s702RinKGGiXuDa-8" value="&lt;font style=&quot;font-size: 10px;&quot;&gt;CameraPose&lt;/font&gt;" style="rounded=0;whiteSpace=wrap;html=1;fillColor=#fff2cc;strokeColor=#d6b656;" vertex="1" parent="1">
          <mxGeometry x="100" y="320" width="60" height="40" as="geometry" />
        </mxCell>
        <mxCell id="SIbb_s702RinKGGiXuDa-10" value="&lt;font style=&quot;font-size: 10px;&quot;&gt;CameraPose&lt;/font&gt;" style="rounded=0;whiteSpace=wrap;html=1;fillColor=#fff2cc;strokeColor=#d6b656;" vertex="1" parent="1">
          <mxGeometry x="160" y="320" width="60" height="40" as="geometry" />
        </mxCell>
        <mxCell id="SIbb_s702RinKGGiXuDa-11" value="&lt;font style=&quot;font-size: 10px;&quot;&gt;CameraPose&lt;/font&gt;" style="rounded=0;whiteSpace=wrap;html=1;fillColor=#fff2cc;strokeColor=#d6b656;" vertex="1" parent="1">
          <mxGeometry x="220" y="320" width="60" height="40" as="geometry" />
        </mxCell>
        <mxCell id="SIbb_s702RinKGGiXuDa-12" value="&lt;font style=&quot;font-size: 10px;&quot;&gt;CameraPose&lt;/font&gt;" style="rounded=0;whiteSpace=wrap;html=1;fillColor=#fff2cc;strokeColor=#d6b656;" vertex="1" parent="1">
          <mxGeometry x="280" y="320" width="60" height="40" as="geometry" />
        </mxCell>
        <mxCell id="SIbb_s702RinKGGiXuDa-13" value="&lt;font style=&quot;font-size: 10px;&quot;&gt;CameraPose&lt;/font&gt;" style="rounded=0;whiteSpace=wrap;html=1;fillColor=#fff2cc;strokeColor=#d6b656;" vertex="1" parent="1">
          <mxGeometry x="340" y="320" width="60" height="40" as="geometry" />
        </mxCell>
        <mxCell id="SIbb_s702RinKGGiXuDa-14" value="&lt;font style=&quot;font-size: 10px;&quot;&gt;CameraPose&lt;/font&gt;" style="rounded=0;whiteSpace=wrap;html=1;fillColor=#fff2cc;strokeColor=#d6b656;" vertex="1" parent="1">
          <mxGeometry x="400" y="320" width="60" height="40" as="geometry" />
        </mxCell>
      </root>
    </mxGraphModel>
  </diagram>
</mxfile>
